<mxfile host="www.draw.io" modified="2020-02-04T14:12:07.022Z" agent="Mozilla/5.0 (Windows NT 10.0; Win64; x64; rv:68.0) Gecko/20100101 Firefox/68.0" etag="u59gD_4ghnVtzEcaB7Wr" version="12.6.5" type="github">
  <diagram id="6a731a19-8d31-9384-78a2-239565b7b9f0" name="Page-1">
    <mxGraphModel dx="1662" dy="791" grid="1" gridSize="10" guides="1" tooltips="1" connect="1" arrows="1" fold="1" page="1" pageScale="1" pageWidth="1169" pageHeight="827" background="#ffffff" math="0" shadow="0">
      <root>
        <mxCell id="0"/>
        <mxCell id="1" parent="0"/>
        <mxCell id="YbB6-Ssyfg7MyDk3qhQC-55" style="edgeStyle=orthogonalEdgeStyle;rounded=0;orthogonalLoop=1;jettySize=auto;html=1;" parent="1" source="2" edge="1">
          <mxGeometry relative="1" as="geometry">
            <mxPoint x="450" y="75" as="targetPoint"/>
          </mxGeometry>
        </mxCell>
        <mxCell id="2" value="JIRA " style="shape=mxgraph.flowchart.terminator;strokeWidth=2;gradientColor=none;gradientDirection=north;fontStyle=0;html=1;" parent="1" vertex="1">
          <mxGeometry x="260" y="60" width="120" height="30" as="geometry"/>
        </mxCell>
        <mxCell id="3" value="&lt;div&gt;BU create a Jira ticket &lt;br&gt;&lt;/div&gt;&lt;div&gt;for access to EDP&lt;/div&gt;&lt;div&gt;Tools&lt;/div&gt;&lt;div&gt;with access level &lt;br&gt;&lt;/div&gt;&lt;div&gt;and user&#39;s SLIDS&lt;br&gt;&lt;/div&gt;" style="shape=mxgraph.flowchart.data;strokeWidth=2;gradientColor=none;gradientDirection=north;fontStyle=0;html=1;" parent="1" vertex="1">
          <mxGeometry x="220" y="130" width="190" height="80" as="geometry"/>
        </mxCell>
        <mxCell id="-QvE6c-hF7KXVYbvAfj5-75" style="edgeStyle=orthogonalEdgeStyle;rounded=0;orthogonalLoop=1;jettySize=auto;html=1;entryX=0.564;entryY=0;entryDx=0;entryDy=0;entryPerimeter=0;" parent="1" source="4" target="13" edge="1">
          <mxGeometry relative="1" as="geometry"/>
        </mxCell>
        <mxCell id="4" value="&lt;div&gt;Abhilash (Developer)&lt;/div&gt;&lt;div&gt;writes the ADFS Role&lt;/div&gt;&lt;div&gt;in&lt;br&gt;&lt;/div&gt;&lt;div&gt;cloudformation &lt;br&gt;&lt;/div&gt;&lt;div&gt;Template&lt;br&gt;&lt;/div&gt;" style="shape=mxgraph.flowchart.data;strokeWidth=2;gradientColor=none;gradientDirection=north;fontStyle=0;html=1;" parent="1" vertex="1">
          <mxGeometry x="300" y="630" width="179.5" height="80" as="geometry"/>
        </mxCell>
        <mxCell id="5" value="&lt;div&gt;Approval Nelson &lt;br&gt;&lt;/div&gt;&lt;div&gt;Hand shake &lt;br&gt;&lt;/div&gt;" style="shape=mxgraph.flowchart.data;strokeWidth=2;gradientColor=none;gradientDirection=north;fontStyle=0;html=1;" parent="1" vertex="1">
          <mxGeometry x="240.5" y="250" width="159" height="80" as="geometry"/>
        </mxCell>
        <mxCell id="7" style="fontStyle=1;strokeColor=#003366;strokeWidth=1;html=1;" parent="1" source="2" target="3" edge="1">
          <mxGeometry relative="1" as="geometry"/>
        </mxCell>
        <mxCell id="8" style="fontStyle=1;strokeColor=#003366;strokeWidth=1;html=1;" parent="1" source="3" target="5" edge="1">
          <mxGeometry relative="1" as="geometry"/>
        </mxCell>
        <mxCell id="-QvE6c-hF7KXVYbvAfj5-77" style="edgeStyle=orthogonalEdgeStyle;rounded=0;orthogonalLoop=1;jettySize=auto;html=1;entryX=0.626;entryY=0.13;entryDx=0;entryDy=0;entryPerimeter=0;" parent="1" source="13" target="20" edge="1">
          <mxGeometry relative="1" as="geometry"/>
        </mxCell>
        <mxCell id="13" value="&lt;div&gt;Deploy the ADFS &lt;br&gt;&lt;/div&gt;&lt;div&gt;cloudformation &lt;br&gt;&lt;/div&gt;&lt;div&gt;template to populate &lt;br&gt;&lt;/div&gt;&lt;div&gt;ADFS Roles&lt;br&gt;&lt;/div&gt;" style="shape=mxgraph.flowchart.data;strokeWidth=2;gradientColor=none;gradientDirection=north;fontStyle=0;html=1;" parent="1" vertex="1">
          <mxGeometry x="300" y="790" width="159" height="80" as="geometry"/>
        </mxCell>
        <mxCell id="-QvE6c-hF7KXVYbvAfj5-58" style="edgeStyle=orthogonalEdgeStyle;rounded=0;orthogonalLoop=1;jettySize=auto;html=1;entryX=0.5;entryY=0;entryDx=0;entryDy=0;entryPerimeter=0;exitX=0.5;exitY=0.9;exitDx=0;exitDy=0;exitPerimeter=0;" parent="1" source="15" target="18" edge="1">
          <mxGeometry relative="1" as="geometry">
            <mxPoint x="120" y="610" as="targetPoint"/>
          </mxGeometry>
        </mxCell>
        <mxCell id="15" value="&lt;div&gt;open a ticket create a new &lt;br&gt;&lt;/div&gt;&lt;div&gt;BU to AD group if &lt;br&gt;&lt;/div&gt;&lt;div&gt;NO&lt;br&gt;&lt;/div&gt;" style="shape=mxgraph.flowchart.document;strokeWidth=2;gradientColor=none;gradientDirection=north;fontStyle=0;html=1;" parent="1" vertex="1">
          <mxGeometry x="50" y="450" width="140" height="70" as="geometry"/>
        </mxCell>
        <mxCell id="18" value="&lt;div&gt;Approval from AD Group &lt;br&gt;&lt;/div&gt;&lt;div&gt;Team&lt;/div&gt;" style="shape=mxgraph.flowchart.predefined_process;strokeWidth=2;gradientColor=none;gradientDirection=north;fontStyle=0;html=1;" parent="1" vertex="1">
          <mxGeometry x="25" y="620" width="190" height="90" as="geometry"/>
        </mxCell>
        <mxCell id="-QvE6c-hF7KXVYbvAfj5-78" style="edgeStyle=orthogonalEdgeStyle;rounded=0;orthogonalLoop=1;jettySize=auto;html=1;" parent="1" source="20" edge="1">
          <mxGeometry relative="1" as="geometry">
            <mxPoint x="600" y="990" as="targetPoint"/>
          </mxGeometry>
        </mxCell>
        <mxCell id="20" value="&lt;div&gt;&lt;br&gt;&lt;/div&gt;&lt;div&gt;&lt;br&gt;&lt;/div&gt;&lt;div&gt;Logging and Monitoring &lt;br&gt;&lt;/div&gt;&lt;div&gt;via&lt;/div&gt;&lt;div&gt;cloudtrail&amp;amp;Qradar &lt;br&gt;&lt;/div&gt;&lt;div&gt;(Lags of 20mins in firing Alerts)&lt;br&gt;&lt;/div&gt;" style="shape=mxgraph.flowchart.manual_input;strokeWidth=2;gradientColor=none;gradientDirection=north;fontStyle=0;html=1;" parent="1" vertex="1">
          <mxGeometry x="260" y="940" width="190" height="100" as="geometry"/>
        </mxCell>
        <mxCell id="-QvE6c-hF7KXVYbvAfj5-66" value="" style="edgeStyle=orthogonalEdgeStyle;rounded=0;orthogonalLoop=1;jettySize=auto;html=1;exitX=0.5;exitY=0.91;exitDx=0;exitDy=0;exitPerimeter=0;" parent="1" source="51" target="-QvE6c-hF7KXVYbvAfj5-61" edge="1">
          <mxGeometry relative="1" as="geometry"/>
        </mxCell>
        <mxCell id="51" value="&lt;div&gt;BU added to AD Group &lt;br&gt;&lt;/div&gt;&lt;div&gt;(Yes/No)&lt;br&gt;&lt;/div&gt;" style="shape=mxgraph.flowchart.paper_tape;strokeWidth=2;gradientColor=none;gradientDirection=north;fontStyle=0;html=1;" parent="1" vertex="1">
          <mxGeometry x="300" y="367" width="150" height="83" as="geometry"/>
        </mxCell>
        <mxCell id="52" value="" style="edgeStyle=elbowEdgeStyle;elbow=horizontal;entryX=0.905;entryY=0.5;entryPerimeter=0;fontStyle=1;strokeColor=#003366;strokeWidth=1;html=1;exitX=1;exitY=0.7;exitDx=0;exitDy=0;exitPerimeter=0;" parent="1" source="51" target="5" edge="1">
          <mxGeometry width="100" height="100" as="geometry">
            <mxPoint x="490" y="410" as="sourcePoint"/>
            <mxPoint x="100" as="targetPoint"/>
            <Array as="points">
              <mxPoint x="580" y="370"/>
              <mxPoint x="580" y="370"/>
              <mxPoint x="580" y="350"/>
              <mxPoint x="545" y="300"/>
            </Array>
          </mxGeometry>
        </mxCell>
        <mxCell id="qdd8MyM_OBwsyk5cZME9-55" style="edgeStyle=orthogonalEdgeStyle;rounded=0;orthogonalLoop=1;jettySize=auto;html=1;exitX=0.5;exitY=1;exitDx=0;exitDy=0;" parent="1" edge="1">
          <mxGeometry relative="1" as="geometry">
            <mxPoint x="405" y="1260" as="sourcePoint"/>
            <mxPoint x="405" y="1260" as="targetPoint"/>
          </mxGeometry>
        </mxCell>
        <mxCell id="YbB6-Ssyfg7MyDk3qhQC-52" value="&lt;div&gt;TO BE&lt;/div&gt;&lt;div&gt;ServiceNow&lt;br&gt;&lt;/div&gt;" style="shape=process;whiteSpace=wrap;html=1;backgroundOutline=1;" parent="1" vertex="1">
          <mxGeometry x="450" y="45" width="120" height="60" as="geometry"/>
        </mxCell>
        <mxCell id="-QvE6c-hF7KXVYbvAfj5-57" style="edgeStyle=orthogonalEdgeStyle;rounded=0;orthogonalLoop=1;jettySize=auto;html=1;exitX=0;exitY=1;exitDx=0;exitDy=0;" parent="1" source="-QvE6c-hF7KXVYbvAfj5-56" edge="1">
          <mxGeometry relative="1" as="geometry">
            <mxPoint x="110" y="450" as="targetPoint"/>
          </mxGeometry>
        </mxCell>
        <mxCell id="-QvE6c-hF7KXVYbvAfj5-65" style="edgeStyle=orthogonalEdgeStyle;rounded=0;orthogonalLoop=1;jettySize=auto;html=1;exitX=1;exitY=0;exitDx=0;exitDy=0;entryX=-0.007;entryY=0.378;entryDx=0;entryDy=0;entryPerimeter=0;" parent="1" source="-QvE6c-hF7KXVYbvAfj5-56" target="51" edge="1">
          <mxGeometry relative="1" as="geometry"/>
        </mxCell>
        <mxCell id="-QvE6c-hF7KXVYbvAfj5-56" value="" style="shape=partialRectangle;whiteSpace=wrap;html=1;bottom=0;right=0;fillColor=none;" parent="1" vertex="1">
          <mxGeometry x="110" y="390" width="180" height="47" as="geometry"/>
        </mxCell>
        <mxCell id="-QvE6c-hF7KXVYbvAfj5-72" style="edgeStyle=orthogonalEdgeStyle;rounded=0;orthogonalLoop=1;jettySize=auto;html=1;entryX=0.418;entryY=0;entryDx=0;entryDy=0;entryPerimeter=0;" parent="1" source="-QvE6c-hF7KXVYbvAfj5-61" target="4" edge="1">
          <mxGeometry relative="1" as="geometry"/>
        </mxCell>
        <mxCell id="-QvE6c-hF7KXVYbvAfj5-61" value="yes " style="rhombus;whiteSpace=wrap;html=1;" parent="1" vertex="1">
          <mxGeometry x="335" y="480" width="80" height="70" as="geometry"/>
        </mxCell>
        <mxCell id="-QvE6c-hF7KXVYbvAfj5-71" value="&lt;div&gt;TO BE &lt;br&gt;&lt;/div&gt;&lt;div&gt;Near Real Time Monitoring Recommended for security events&lt;/div&gt;" style="shape=process;whiteSpace=wrap;html=1;backgroundOutline=1;" parent="1" vertex="1">
          <mxGeometry x="600" y="950" width="200" height="90" as="geometry"/>
        </mxCell>
        <mxCell id="-QvE6c-hF7KXVYbvAfj5-82" value="No" style="text;html=1;strokeColor=none;fillColor=none;align=center;verticalAlign=middle;whiteSpace=wrap;rounded=0;" parent="1" vertex="1">
          <mxGeometry x="240.5" y="399.83000000000004" width="40" height="20" as="geometry"/>
        </mxCell>
        <mxCell id="UV1SBRMzDm4wpvwCHMNE-52" value="" style="endArrow=classic;html=1;entryX=0.106;entryY=0.4;entryDx=0;entryDy=0;entryPerimeter=0;" edge="1" parent="1" target="4">
          <mxGeometry width="50" height="50" relative="1" as="geometry">
            <mxPoint x="220" y="662" as="sourcePoint"/>
            <mxPoint x="280.5" y="645" as="targetPoint"/>
            <Array as="points"/>
          </mxGeometry>
        </mxCell>
      </root>
    </mxGraphModel>
  </diagram>
</mxfile>
